<svg t="1704114701294" class="icon" viewBox="0 0 1024 1024" version="1.1" xmlns="http://www.w3.org/2000/svg" p-id="9522" width="200" height="200"><path d="M954.2 579.6l-238-237.8C679 304.4 629.2 284 576 284c-25 0-50 4.8-73.2 14l-143.2-143.2c-77.4-77.4-203.2-77.4-280.4 0L69.8 164C32.6 201.4 12 251.2 12 304.2c0 53.2 20.6 103 57.8 140.2l237.8 237.8c37.4 37.4 87.2 57.8 140.2 57.8 25.6 0 50.2-4.8 73.2-14l143.2 143.2c37.4 37.4 87.2 57.8 140.2 57.8 53.2 0 102.8-20.6 140.2-57.8l9.4-9.4c37.4-37.4 57.8-87.2 57.8-140.2 0.2-52.8-20.4-102.6-57.6-140zM352 638L114.2 400.2c-25.4-25.4-39.6-59.6-39.6-96s14-70.4 39.6-96l9.4-9.4c52.8-52.8 139-52.8 191.8 0l132.2 132.2c-4 3.4-8 6.8-11.8 10.6l-9.4 9.4c-35.6 35.6-57 84.8-58.8 135.2-1 25.4 3.2 50.2 11.6 73l-206-206c-25-25-25-65.6 0-90.6l4.8-4.8c25-25 65.6-25 90.6 0l82.6 82.6c8.2 8.2 21.4 8.2 29.6 0 8.2-8.2 8.2-21.4 0-29.6l-82.6-82.6c-41.2-41.2-108.4-41.2-149.6 0l-4.8 4.8c-41.2 41.2-41.2 108.4 0 149.6L367 606c19.8 19.8 47 30.8 75 30.8 5.2 0 10.4-0.4 15.4-1.2 22.6-3.4 43-13.6 59.2-29.8l4.8-4.8c40-40 41-104.2 3.4-145.8 1.6-2 3.2-4 5-5.8l4.8-4.8c5-5 10.6-8.6 16.6-11.6 1.2 2 2.6 4 4.4 5.6 25.2 25.2 38.8 58.8 38.4 94.2-0.6 35.6-15 69.4-40.8 95.2l-9.4 9.4c-25.6 25.4-59.6 39.6-96 39.6-36.2 0.6-70.4-13.4-95.8-39z m557.8 177.8l-9.4 9.4c-52.8 52.8-139 52.8-191.8 0l-132.2-132.2c4-3.4 8-6.8 11.8-10.6l9.4-9.4c37.4-37.4 58.4-86.6 59.2-138.6 0.4-24.2-4-47.8-12.2-70l206.8 206.8c25 25 25 65.6 0 90.4l-4.8 4.8c-12 12-28.2 18.6-45.2 18.6-17.2 0-33.2-6.6-45.2-18.6l-87.4-87.4c-8.2-8.2-21.4-8.2-29.6 0-8.2 8.2-8.2 21.4 0 29.6l87.4 87.4c20 20 46.4 30.8 74.8 30.8s54.8-11 74.8-30.8l4.8-4.8c41.2-41.2 41.2-108.4 0-149.6l-226-226c-41.2-41.2-108.4-41.2-149.6 0l-4.8 4.8c-20 19.8-30.8 46.4-30.8 74.8 0 26.4 9.6 51.4 27.2 70.8-1.6 2-3 4-4.8 6l-4.8 4.8c-4.6 4.6-10 8.6-16 11.6-1.2-2.2-2.8-4.2-4.6-6.2-24.6-24.6-37.4-57.8-36.2-93.6 1.2-34.8 16-68.6 40.4-93.2l9.4-9.4c25.6-25.4 59.6-39.6 96-39.6s70.4 14 96 39.6l237.4 238c53 52.8 53 138.8 0 191.8z" fill="" p-id="9523"></path></svg>