<svg t="1704114583293" class="icon" viewBox="0 0 1024 1024" version="1.1" xmlns="http://www.w3.org/2000/svg" p-id="7428" width="200" height="200"><path d="M278.272 643.072c-9.216 0-18.176-4.096-24.32-11.776-10.496-13.312-8.192-32.768 5.376-43.008 3.072-2.304 76.544-59.136 165.12-83.712 45.568-12.544 96.256-9.216 149.504-5.632 47.36 3.072 96.256 6.4 139.264-2.816 39.68-8.448 106.752-45.056 145.152-67.84L777.216 133.632C737.28 155.392 672 189.44 630.016 200.96c-36.864 10.24-86.784 7.168-139.52 3.84-54.272-3.328-110.336-6.912-148.736 4.352-74.24 21.76-142.08 72.192-142.848 72.704-13.568 10.24-32.768 7.424-43.008-6.144S148.48 242.944 161.792 232.704c3.072-2.304 77.312-57.856 162.56-82.688 48.896-14.336 110.336-10.496 169.728-6.656 45.312 2.816 92.416 5.632 119.552-1.792 45.568-12.544 136.192-62.464 167.168-80.64 8.192-4.864 18.176-5.632 27.136-2.048 8.96 3.584 15.616 11.008 17.92 20.224l98.048 354.816c3.584 13.056-1.792 26.88-13.056 34.048-4.608 3.072-116.48 73.472-184.576 87.808-51.456 11.008-104.704 7.424-156.416 3.84-48.128-3.328-93.696-6.144-129.28 3.584-76.8 21.248-142.848 72.192-143.616 72.704-5.376 5.12-12.032 7.168-18.688 7.168z" fill="#040000" p-id="7429"></path><path d="M348.416 916.224c-13.568 0-25.856-8.96-29.696-22.528L128.512 195.328c-4.352-16.384 5.12-33.28 21.504-37.632 16.384-4.352 33.28 5.12 37.632 21.504l190.464 698.368c4.352 16.384-5.12 33.28-21.504 37.632-2.816 0.768-5.376 1.024-8.192 1.024z" fill="#040000" p-id="7430"></path><path d="M905.216 943.36H139.008c-16.896 0-30.72-13.824-30.72-30.72s13.824-30.72 30.72-30.72h766.464c16.896 0 30.72 13.824 30.72 30.72s-13.824 30.72-30.976 30.72z" fill="#040000" p-id="7431"></path></svg>